<?xml version="1.0" encoding="utf-8"?>
<!-- Generator: Adobe Illustrator 27.5.0, SVG Export Plug-In . SVG Version: 6.00 Build 0)  -->
<svg version="1.1" id="Слой_1" xmlns="http://www.w3.org/2000/svg" xmlns:xlink="http://www.w3.org/1999/xlink" x="0px" y="0px"
	 viewBox="0 0 500 500" style="enable-background:new 0 0 500 500;" xml:space="preserve">
<rect style="fill:#FAFAFA;" width="500" height="500"/>
<g>
	<g>
		<g>
			<path style="fill:#78C2FF;" d="M264.595,94.487c-0.74-2.866-1.876-5.572-3.344-8.06l3.403-5.118l-4.721-4.721l-4.722-4.722
				l-5.118,3.403c-2.488-1.467-5.194-2.603-8.06-3.343l-1.211-6.021h-6.677h-6.677l-1.212,6.021
				c-2.866,0.741-5.572,1.876-8.06,3.343l-5.118-3.403l-4.722,4.722l-4.721,4.721l3.403,5.118c-1.467,2.488-2.603,5.194-3.343,8.06
				l-6.021,1.211v6.677v6.677l6.021,1.211c0.74,2.866,1.876,5.572,3.343,8.06l-3.403,5.118l4.721,4.721l4.722,4.722l5.118-3.403
				c2.488,1.467,5.194,2.603,8.06,3.343l1.212,6.021h6.677h6.677l1.211-6.021c2.866-0.741,5.572-1.876,8.06-3.343l5.118,3.403
				l4.722-4.722l4.721-4.721l-3.403-5.118c1.468-2.488,2.603-5.194,3.344-8.06l6.021-1.211v-6.677v-6.677L264.595,94.487z
				 M234.145,125.773c-12.922,0-23.397-10.475-23.397-23.397s10.475-23.397,23.397-23.397c12.922,0,23.397,10.475,23.397,23.397
				S247.067,125.773,234.145,125.773z"/>
		</g>
	</g>
	<g>
		<g>
			<g>
				<path style="fill:#78C2FF;" d="M217.62,185.679h-97c-4.847,0-8.791-3.943-8.791-8.79v-66.695c0-4.847,3.944-8.791,8.791-8.791
					h97c4.847,0,8.79,3.943,8.79,8.791v66.695C226.411,181.735,222.467,185.679,217.62,185.679z M120.621,102.014
					c-4.51,0-8.18,3.669-8.18,8.18v66.695c0,4.51,3.67,8.18,8.18,8.18h97c4.51,0,8.18-3.669,8.18-8.18v-66.695
					c0-4.51-3.669-8.18-8.18-8.18H120.621z"/>
			</g>
		</g>
	</g>
	<g>
		<g>
			<rect x="138.692" y="146.29" style="fill:#78C2FF;" width="0.898" height="107.468"/>
		</g>
	</g>
	<g>
		<g>
			<path style="fill:#4DA8F2;" d="M353.781,367.847h-6.109v-1.02h6.109V367.847z M341.563,367.847h-6.11v-1.02h6.11V367.847z
				 M329.343,367.847h-6.109v-1.02h6.109V367.847z M317.123,367.847h-6.109v-1.02h6.109V367.847z M304.904,367.847h-6.109v-1.02
				h6.109V367.847z M292.685,367.847h-6.109v-1.02h6.109V367.847z M280.466,367.847h-6.109v-1.02h6.109V367.847z M268.246,367.847
				h-6.109v-1.02h6.109V367.847z M256.027,367.847h-6.11v-1.02h6.11V367.847z M243.808,367.847h-6.11v-1.02h6.11V367.847z
				 M231.589,367.847h-6.11v-1.02h6.11V367.847z M219.37,367.847h-6.11v-1.02h6.11V367.847z M207.15,367.847h-6.11v-1.02h6.11
				V367.847z M194.931,367.847h-6.11v-1.02h6.11V367.847z M182.712,367.847h-6.109v-1.02h6.109V367.847z M359.962,367.698
				l-0.157-1.007c1.929-0.301,3.759-1.104,5.293-2.322l0.633,0.797C364.059,366.494,362.063,367.369,359.962,367.698z
				 M170.444,366.659c-1.923-0.911-3.589-2.315-4.82-4.057l0.832-0.588c1.13,1.601,2.66,2.888,4.424,3.725L170.444,366.659z
				 M369.51,360.124l-0.944-0.382c0.552-1.357,0.831-2.794,0.831-4.272v-1.533h1.018v1.533
				C370.414,357.08,370.11,358.647,369.51,360.124z M163.423,356.699c-0.04-0.405-0.06-0.818-0.06-1.229v-4.928h1.018v4.928
				c0,0.378,0.019,0.758,0.056,1.13L163.423,356.699z M370.414,347.827h-1.018v-6.109h1.018V347.827z M164.381,344.433h-1.018
				v-6.109h1.018V344.433z M370.414,335.607h-1.018v-6.109h1.018V335.607z M164.381,332.214h-1.018v-6.11h1.018V332.214z
				 M370.414,323.389h-1.018v-6.11h1.018V323.389z M164.381,319.994h-1.018v-6.109h1.018V319.994z M370.414,311.169h-1.018v-6.109
				h1.018V311.169z M164.381,307.774h-1.018v-6.109h1.018V307.774z M370.414,298.949h-1.018v-6.109h1.018V298.949z M164.381,295.556
				h-1.018v-6.11h1.018V295.556z M370.414,286.73h-1.018v-6.109h1.018V286.73z M164.381,283.336h-1.018v-6.109h1.018V283.336z
				 M370.414,274.511h-1.018v-6.109h1.018V274.511z M164.381,271.117h-1.018v-6.11h1.018V271.117z M370.414,262.292h-1.018v-6.109
				h1.018V262.292z M164.381,258.898h-1.018v-6.11h1.018V258.898z M370.414,250.073h-1.018v-6.11h1.018V250.073z M164.381,246.679
				h-1.018v-6.11h1.018V246.679z M370.414,237.854h-1.018v-6.109h1.018V237.854z M164.381,234.46h-1.018v-6.11h1.018V234.46z
				 M370.414,225.634h-1.018v-6.11h1.018V225.634z M164.381,222.24h-1.018v-6.11h1.018V222.24z M370.414,213.415h-1.018v-6.11h1.018
				V213.415z M164.381,210.021h-1.018v-6.11h1.018V210.021z M370.414,201.196h-1.018v-6.109h1.018V201.196z M164.381,197.802h-1.018
				v-6.11h1.018V197.802z M370.414,188.977h-1.018v-6.11h1.018V188.977z M164.381,185.583h-1.018v-6.11h1.018V185.583z
				 M370.414,176.757h-1.018v-6.11h1.018V176.757z M164.381,173.363h-1.018v-6.11h1.018V173.363z M370.414,164.538h-1.018v-6.11
				h1.018V164.538z M164.381,161.144h-1.018v-6.11h1.018V161.144z M370.414,152.319h-1.018v-6.11h1.018V152.319z M164.381,148.925
				h-1.018v-6.11h1.018V148.925z M370.414,140.1h-1.018v-6.109h1.018V140.1z M164.381,136.706h-1.018v-6.11h1.018V136.706z
				 M370.414,127.88h-1.018v-6.11h1.018V127.88z M164.381,124.486h-1.018v-6.11h1.018V124.486z M370.414,115.661h-1.018v-6.11
				c0-0.756-0.075-1.511-0.223-2.246l0.999-0.2c0.16,0.801,0.242,1.623,0.241,2.447V115.661z M164.381,112.267h-1.018v-2.716
				c0-1.187,0.168-2.361,0.499-3.491l0.978,0.287c-0.304,1.036-0.458,2.114-0.458,3.204V112.267z M366.625,102.117
				c-1.284-1.482-2.935-2.611-4.772-3.266l0.342-0.959c2.002,0.714,3.8,1.945,5.199,3.559L366.625,102.117z M167.831,101.4
				l-0.709-0.731c1.534-1.488,3.432-2.558,5.488-3.094l0.257,0.985C170.98,99.052,169.238,100.034,167.831,101.4z M355.993,98.194
				h-6.109v-1.018h6.109V98.194z M343.774,98.194h-6.109v-1.018h6.109V98.194z M331.555,98.194h-6.109v-1.018h6.109V98.194z
				 M319.336,98.194h-6.109v-1.018h6.109V98.194z M307.116,98.194h-6.109v-1.018h6.109V98.194z M294.897,98.194h-6.109v-1.018h6.109
				V98.194z M282.678,98.194h-6.109v-1.018h6.109V98.194z M270.459,98.194h-6.109v-1.018h6.109V98.194z M258.24,98.194h-6.11v-1.018
				h6.11V98.194z M246.02,98.194h-6.109v-1.018h6.109V98.194z M233.801,98.194h-6.109v-1.018h6.109V98.194z M221.582,98.194h-6.11
				v-1.018h6.11V98.194z M209.363,98.194h-6.109v-1.018h6.109V98.194z M197.144,98.194h-6.11v-1.018h6.11V98.194z M184.924,98.194
				h-6.11v-1.018h6.11V98.194z"/>
		</g>
	</g>
	<g>
		<g>
			<g>
				<g>
					<path style="fill:#BBD070;" d="M321.29,105.717c0,0,27.651,22.882,16.367,42.976c-11.283,20.094-18.356,3.67-18.356,3.67
						s-8.354,3.168,2.666-21.406C327.161,119.375,321.29,105.717,321.29,105.717z"/>
				</g>
			</g>
		</g>
		<g>
			<g>
				<g>
					<path style="fill:#97A43C;" d="M367.391,75.628c0,0,21.431,21.909-2.822,55.994c-24.252,34.085-18.961,50.843-18.961,50.843
						S304.839,128.965,367.391,75.628z"/>
				</g>
			</g>
		</g>
		<g>
			<g>
				<g>
					<path style="fill:#48753A;" d="M338.148,172.61c-12.155,3.349-3.858-32.653,13.869-44.864
						c17.727-12.212,34.192-14.424,43.815-25.668C395.833,102.078,398,156.12,338.148,172.61z"/>
				</g>
			</g>
		</g>
	</g>
	<g>
		<g>
			<g>
				<path style="fill:#E4F3FF;" d="M356.869,129.686v245.918c0,6.554-5.311,11.867-11.865,11.867H162.703
					c-6.553,0-11.867-5.314-11.867-11.867V129.686c0-6.554,5.314-11.867,11.867-11.867h182.301
					C351.558,117.818,356.869,123.132,356.869,129.686z"/>
			</g>
		</g>
	</g>
	<g style="opacity:0.85;">
		<g>
			<g>
				<path style="fill:#4392D1;" d="M323.3,312.419v75.052H206.805v-74.198c0-3.902,3.163-7.064,7.064-7.064H317.09
					C320.52,306.208,323.3,308.988,323.3,312.419z"/>
			</g>
		</g>
	</g>
	<g>
		<g>
			<g>
				<g>
					<g>
						<path style="fill:#0E2D3D;" d="M96.063,285.723c0,0,4.745,2.321,3.571,8.635c-1.173,6.315-1.692,7.165-0.38,9.632
							c1.312,2.467,2.861,12.991,1.68,14.985c-1.181,1.994-14.618-8.766-16.481-17.793c-1.863-9.028,1.181-13.044,2.257-14.54
							C87.786,285.147,91.874,283.598,96.063,285.723z"/>
					</g>
				</g>
			</g>
		</g>
	</g>
	<g>
		<g>
			<polygon style="fill:#78C2FF;" points="119.853,278.022 104.673,278.022 104.673,289.024 104.673,291.342 106.99,289.024 
				119.853,289.024 			"/>
		</g>
	</g>
	<g>
		<g>
			<g>
				<g>
					<path style="fill:#78C2FF;" d="M190.618,287.478c2.518,0.854,5.214,1.329,8.019,1.366c8.495,0.108,16.094-3.861,20.928-10.093
						c3.352-4.32,5.375-9.727,5.448-15.614c0.008-0.584-0.004-1.169-0.033-1.744c-0.139-2.615-0.667-5.128-1.523-7.485
						c-3.591-9.887-13.007-17.004-24.148-17.148c-6.003-0.079-11.555,1.881-16.004,5.237c-6.214,4.686-10.269,12.091-10.375,20.472
						C172.78,274.045,180.21,283.956,190.618,287.478z M179.444,262.551c0.08-6.238,3.08-11.756,7.682-15.27
						c3.353-2.563,7.553-4.062,12.096-4.005c8.352,0.107,15.412,5.444,18.106,12.858l0.005,0.01c0.64,1.764,1.032,3.645,1.138,5.603
						c0.023,0.432,0.03,0.868,0.026,1.309c-0.058,4.414-1.577,8.465-4.087,11.702c-3.624,4.675-9.32,7.653-15.689,7.57
						c-2.105-0.026-4.126-0.385-6.015-1.025C184.906,278.665,179.334,271.235,179.444,262.551z"/>
				</g>
			</g>
		</g>
		<g>
			<g>
				<g>
					<path style="fill:#1A598C;" d="M214.41,274.758l5.154,3.992c-4.835,6.232-12.433,10.203-20.928,10.094
						c-2.805-0.036-5.499-0.514-8.019-1.366l2.091-6.175c1.889,0.639,3.909,0.998,6.012,1.024
						C205.089,282.41,210.785,279.432,214.41,274.758z"/>
				</g>
			</g>
		</g>
		<g>
			<g>
				<g>
					<path style="fill:#2273B5;" d="M218.469,261.745l6.509-0.354c0.031,0.576,0.042,1.16,0.034,1.745
						c-0.075,5.888-2.099,11.294-5.449,15.613l-5.154-3.992c2.512-3.237,4.029-7.29,4.085-11.704
						C218.501,262.614,218.492,262.178,218.469,261.745z"/>
				</g>
			</g>
		</g>
		<g>
			<g>
				<g>
					<path style="fill:#2273B5;" d="M218.471,261.746c-0.105-1.958-0.498-3.839-1.138-5.603l-0.005-0.01l6.128-2.227
						c0.857,2.357,1.384,4.87,1.523,7.485L218.471,261.746z"/>
				</g>
			</g>
		</g>
		<g>
			<g>
				<g>
					<path style="fill:#4DA8F2;" d="M183.304,241.996c4.449-3.356,10.001-5.315,16.004-5.237
						c11.14,0.144,20.556,7.261,24.148,17.148l-6.123,2.236l-0.005-0.01c-2.694-7.414-9.753-12.751-18.106-12.858
						c-4.544-0.057-8.743,1.442-12.096,4.005L183.304,241.996z"/>
				</g>
			</g>
		</g>
	</g>
	<path style="fill:#4DA8F2;" d="M189.597,297.692c-1.668-2.211-4.302-3.654-7.285-3.692c-4.12-0.053-7.646,2.591-8.899,6.294l0,0h0
		c-0.303,0.896-0.473,1.855-0.486,2.854c-0.015,1.163,0.187,2.277,0.565,3.308c0.604,1.648,1.662,3.081,3.027,4.14
		c1.356,1.053,3.014,1.735,4.824,1.899c0.242,0.021,0.485,0.036,0.732,0.039c0.154,0.002,0.306-0.003,0.459-0.009
		c0.054-0.002,0.108-0.001,0.162-0.003c0.93-0.05,1.825-0.237,2.664-0.543c3.518-1.277,6.05-4.628,6.101-8.592
		C191.488,301.251,190.791,299.274,189.597,297.692z M184.566,309.799l-0.003,0.002c-0.628,0.227-1.297,0.367-1.993,0.404l0,0
		c-0.154,0.008-0.309,0.011-0.466,0.01c-0.659-0.009-1.294-0.113-1.896-0.293c-0.832-0.249-1.6-0.644-2.268-1.161
		c-0.244-0.189-0.474-0.396-0.691-0.616c-1.259-1.275-2.028-3.034-2.003-4.967c0.006-0.504,0.07-0.992,0.178-1.464
		c0.052-0.228,0.112-0.456,0.186-0.676c0.939-2.776,3.582-4.759,6.672-4.72c2.22,0.028,4.183,1.096,5.434,2.733
		c0.912,1.193,1.445,2.688,1.425,4.305C189.104,306.328,187.205,308.84,184.566,309.799z"/>
	<g>
		<g>
			<path style="fill:#EEA886;" d="M388.087,268.992c0,0-1.313-2.297,0.77-8.453c2.013-5.954,8.983-5.415,11.197-1.601
				c2.215,3.815,1.467,6.185-1.794,10.491C394.999,273.736,389.44,270.961,388.087,268.992z"/>
		</g>
	</g>
	<g>
		<g>
			<path style="fill:#EEA886;" d="M404.275,374.914c0,0,0.345,2.527,0.388,2.908c0.043,0.38,3.836-0.225,3.836-0.225l0.308-3.01
				C408.807,374.588,404.749,374.557,404.275,374.914z"/>
		</g>
	</g>
	<g>
		<g>
			<path style="fill:#5377B3;" d="M404.622,377.501c0,0-1.201,1.522-2.364,2.188c-1.162,0.664-2.988,0.927-3.676,1.613
				c-0.496,0.497-1.808,2.633,3.02,2.59c4.827-0.043,7.155,0.302,7.673-0.518c0.518-0.818-0.749-6.045-0.749-6.045
				S407.345,377.662,404.622,377.501z"/>
		</g>
	</g>
	<g>
		<g>
			<path style="fill:#EEA886;" d="M378.01,374.914c0,0,0.345,2.527,0.388,2.908c0.043,0.38,3.837-0.225,3.837-0.225l0.307-3.01
				C382.541,374.588,378.484,374.557,378.01,374.914z"/>
		</g>
	</g>
	<g>
		<g>
			<path style="fill:#5B83C2;" d="M378.357,377.501c0,0-1.202,1.522-2.364,2.188c-1.162,0.664-5.44,1.209-6.128,1.896
				c-0.496,0.496-1.321,2.493,5.472,2.307c4.826-0.133,7.156,0.302,7.673-0.518c0.517-0.818-0.748-6.045-0.748-6.045
				S380.762,377.597,378.357,377.501z"/>
		</g>
	</g>
	<g>
		<g>
			<path style="fill:#2F4563;" d="M402.998,311.959c0,0,1.944,6.043,1.689,11.252c-0.256,5.208,1.006,10.908,1.522,16.35
				c0.575,6.066,2.929,20.425,3.014,23.67c0.086,3.245-0.365,13.605-0.365,13.605l-4.711,0.114c0,0-3.956-25.105-4.98-27.666
				c-1.025-2.563-6.106-20.824-6.277-22.874C392.717,324.361,402.998,311.959,402.998,311.959z"/>
		</g>
	</g>
	<g>
		<g>
			<path style="fill:#354C70;" d="M383.466,311.329c0,0-2.859,15.98-3.201,19.169c-0.342,3.188-0.569,15.427-0.74,17.42
				c-0.17,1.992-1.138,26.071-2.049,29.032h5.253c0,0,5.393-17.506,5.393-25.788c0-8.283,3.571-18.006,5.877-23.471
				c2.306-5.465,7.583-5.594,9-15.732C402.998,311.959,385.385,308.113,383.466,311.329z"/>
		</g>
	</g>
	<g>
		<g>
			<path style="fill:#EEA886;" d="M389.992,270.618c0,0,0.593,1.725,0,2.955c-0.593,1.23,7.57,0.491,7.57,0.491
				s-0.369-2.542,0.697-4.635C399.326,267.338,389.992,270.618,389.992,270.618z"/>
		</g>
	</g>
	<g>
		<g>
			<path style="fill:#2B3B57;" d="M403.377,313.274c0,0-2.936,3.016-20.174-0.469l0.263-1.477l19.596,0.737L403.377,313.274z"/>
		</g>
	</g>
	<g>
		<g>
			<path style="fill:#EEA886;" d="M388.757,273.973c0,0-3.015,0.308-3.876,0.472c-0.861,0.164-6.66-1.037-7.85-1.16
				c-1.189-0.123-6.262-3.598-6.426-4.008c-0.164-0.411-3.085-7.809-3.249-9.408c-0.165-1.6-2.847-0.773-2.616,0.328
				c0.43,2.062,0.982,7.067,1.285,8.519c0.327,1.567,1.203,5.115,1.695,5.552c0.492,0.436,5.06,3.91,9.53,5.387
				c4.472,1.478,7.837,3.651,7.837,3.651h22.035c0,0,8.57-12.252,8.755-14.098c0.185-1.846-5.986-14.114-7.217-15.651
				c-1.231-1.538-3.011,0.502-3.011,0.502s3.688,10.818,4.18,12.356c0.492,1.538-4.289,8.297-5.602,8.317
				c-1.313,0.021-4.684-0.41-6.181-0.472c-1.497-0.062-3.076-0.719-3.076-0.719L388.757,273.973z"/>
		</g>
	</g>
	<g>
		<g>
			<path style="fill:#D4D8E8;" d="M379.261,282.156c0,0,2.697,1.793,2.943,4.869s1.23,7.937,1.723,9.598
				c0.492,1.662-0.431,13.721-0.554,14.582c-0.123,0.861,17.051,2.908,19.689,0.861c0,0,0.738-11.26,1.046-14.459
				c0.308-3.198,1.784-10.951,2.277-11.997c0.492-1.046,6.46-9.417,6.706-10.521c0,0-3.088-4.923-5.303-4.984
				c0,0-3.518,4.122-4.665,4.308c-1.146,0.185-8.178-1.104-8.178-1.115c0,0-0.768,1.045-4.847-0.186c0,0-4.858,0.548-5.648,0.648
				c-0.957,0.122-7.609-0.834-7.609-0.834s-2.669,4.506-2.201,6.782L379.261,282.156z"/>
		</g>
	</g>
	<g>
		<g>
			<path style="fill:#EEA886;" d="M367.511,260.83c0,0-0.602-2.852,0.122-3.671c0.413-0.466,1.405-1.7,1.496-1.882
				c0.091-0.181,1.156-0.793,1.156-1.088c0-0.294-1.043-0.657-1.949,0.182c-0.906,0.839-1.474,1.02-1.836,0.93
				c-0.362-0.091-0.884-3.105-0.93-3.854c-0.045-0.748-0.333-2.719-0.801-2.583c-0.468,0.136-0.445,0.997-0.445,0.997
				s-0.544-1.496-0.906-1.202c-0.363,0.295-0.317,1.02-0.317,1.02s-0.681-0.838-0.861-0.227c-0.182,0.612,0,1.156,0,1.156
				s-0.703-0.385-0.748,0.567c-0.046,0.951,0.204,3.74,0.702,4.737c0.499,0.997,2.365,3.604,2.588,4.624
				C365.004,261.556,367.511,260.83,367.511,260.83z"/>
		</g>
	</g>
	<g>
		<g>
			<path style="fill:#EEA886;" d="M406.251,255.822c0,0-2.05-3.446-2.747-3.755c-0.697-0.308-1.682-0.481-2.544-1.097
				c-0.861-0.615-1.999-1.128-1.938-1.333c0.062-0.205,1.076-0.123,2.163,0.349c1.088,0.472,1.565,0.244,1.667-0.002
				c0.103-0.246-0.579-1.984-0.908-2.394c-0.327-0.41-2.666-2.762-2.276-3.11c0.39-0.349,1.907,0.943,2.154,1.21
				c0,0-1.211-2.544-0.739-2.666c0.472-0.124,1.354,0.779,1.354,0.779s-0.103-2.174,2.235,1.354c0,0-0.492-1.169,0.225-0.779
				c0.718,0.39,1.415,2.584,1.641,3.691c0.225,1.108,1.249,4.636,2.122,5.487C409.533,254.406,406.251,255.822,406.251,255.822z"/>
		</g>
	</g>
	<g>
		<g>
			<path style="fill:#353A3D;" d="M398.26,269.43c0,0-1.08,0.096-3.377-0.697c-2.298-0.793-2.469-4.811-2.966-4.334
				c-1.014,0.971-1.971,0.301-2.354-0.274c0,0,1.121-1.476,0.602-2.188c-0.52-0.711-1.365-1.229-1.365-1.229
				s1.615-7.787,8.968-4.239C406.382,260.625,398.26,269.43,398.26,269.43z"/>
		</g>
	</g>
	<g>
		<g>
			<path style="fill:#D4D8E8;" d="M389.992,273.573l0.259-1.126c0,0,4.693-0.095,7.253,0.275l0.27,1.346
				C397.773,274.068,394.495,275.556,389.992,273.573z"/>
		</g>
	</g>
	<g>
		<g>
			<path style="fill:#EEA886;" d="M391.149,263.413c0.427-0.707,2.003-1.186,2.189,0.821c0.143,1.555-2.817,3.254-2.845,1.805
				C390.466,264.59,390.866,263.885,391.149,263.413z"/>
		</g>
	</g>
	<g>
		<g>
			<path style="fill:#E55353;" d="M367.398,260.183c0,0-1.693,0.041-2.514,0.782c0,0-0.055,0.472,0.137,0.844
				c0,0,1.468-0.686,2.593-0.813C367.614,260.995,367.596,260.38,367.398,260.183z"/>
		</g>
	</g>
	<g>
		<g>
			<path style="fill:#353A3D;" d="M365.402,260.604c-0.156,0.37,0.018,0.797,0.388,0.954c0.37,0.156,0.798-0.018,0.954-0.389
				c0.156-0.37-0.017-0.797-0.388-0.953C365.986,260.061,365.559,260.233,365.402,260.604z"/>
		</g>
	</g>
	<g style="opacity:0.3;">
		<g>
			<g>
				<path style="fill:#4DA8F2;" d="M218.895,360.785v28.2c0,2.771-2.248,5.018-5.019,5.018h-42.05c-2.772,0-5.02-2.247-5.02-5.018
					v-28.2c0-2.772,2.247-5.02,5.02-5.02h42.05C216.648,355.766,218.895,358.013,218.895,360.785z"/>
			</g>
		</g>
	</g>
	<g style="opacity:0.3;">
		<g>
			<g>
				<path style="fill:#4DA8F2;" d="M339.249,360.785v28.2c0,2.771-2.247,5.018-5.02,5.018h-42.051c-2.771,0-5.018-2.247-5.018-5.018
					v-28.2c0-2.772,2.247-5.02,5.018-5.02h42.051C337.002,355.766,339.249,358.013,339.249,360.785z"/>
			</g>
		</g>
	</g>
	<g style="opacity:0.82;">
		<g>
			<g>
				<path style="fill:#4DA8F2;" d="M275.494,221.247h-96.999c-4.848,0-8.791-3.943-8.791-8.791v-66.695
					c0-4.847,3.943-8.79,8.791-8.79h96.999c4.847,0,8.791,3.943,8.791,8.79v66.695C284.285,217.304,280.341,221.247,275.494,221.247
					z M178.495,137.582c-4.511,0-8.18,3.67-8.18,8.18v66.695c0,4.51,3.669,8.18,8.18,8.18h96.999c4.51,0,8.18-3.669,8.18-8.18
					v-66.695c0-4.51-3.67-8.18-8.18-8.18H178.495z"/>
			</g>
		</g>
	</g>
	<g>
		<g>
			<g>
				<polygon style="fill:#1A598C;" points="123.485,433.85 124.122,433.824 120.92,353.462 176.285,353.462 179.487,433.85 
					180.123,433.824 176.896,352.826 120.258,352.826 				"/>
			</g>
		</g>
	</g>
	<g>
		<g>
			<g>
				<polygon style="fill:#1A598C;" points="118.3,433.85 121.502,353.462 176.866,353.462 173.665,433.824 174.301,433.85 
					177.529,352.826 120.891,352.826 117.664,433.824 				"/>
			</g>
		</g>
	</g>
	<g>
		<g>
			<polygon style="fill:#1A598C;" points="173.983,407.705 117.982,407.705 121.196,327.012 177.197,327.012 			"/>
		</g>
	</g>
	<g>
		<g>
			<polygon style="fill:#3D8ED1;" points="125.383,407.705 181.384,407.705 178.17,327.012 122.169,327.012 			"/>
		</g>
	</g>
	<g>
		<g>
			<g>
				<rect x="169.553" y="376.473" style="fill:#E3F2FF;" width="2.815" height="21.421"/>
			</g>
		</g>
	</g>
	<g>
		<g>
			<g>
				<rect x="163.992" y="378.873" style="fill:#E3F2FF;" width="2.814" height="19.021"/>
			</g>
		</g>
	</g>
	<g>
		<g>
			<g>
				<rect x="157.95" y="381.995" style="fill:#E3F2FF;" width="2.814" height="15.899"/>
			</g>
		</g>
	</g>
	<g>
		<g>
			<g>
				<rect x="151.745" y="385.933" style="fill:#E3F2FF;" width="2.814" height="11.961"/>
			</g>
		</g>
	</g>
	<g>
		<g>
			<polygon style="fill:#E3F2FF;" points="134.95,383.395 134.339,383.178 139.647,368.287 151.158,365.243 155.294,348.899 
				164.177,344.979 166.166,332.272 166.806,332.372 164.762,345.43 155.845,349.364 151.692,365.772 140.143,368.827 			"/>
		</g>
	</g>
	<g>
		<path style="fill:#3D8ED1;" d="M152.762,364.414c0.604,0.738,0.495,1.826-0.244,2.431c-0.739,0.604-1.827,0.494-2.431-0.245
			c-0.604-0.738-0.494-1.826,0.245-2.43C151.07,363.565,152.159,363.676,152.762,364.414z"/>
	</g>
	<g>
		<path style="fill:#E3F2FF;" d="M152.723,367.095c-0.876,0.716-2.17,0.587-2.886-0.289c-0.716-0.876-0.586-2.171,0.29-2.887
			c0.875-0.716,2.17-0.585,2.886,0.29C153.729,365.085,153.599,366.379,152.723,367.095z M150.537,364.42
			c-0.599,0.49-0.688,1.376-0.198,1.976c0.49,0.599,1.376,0.689,1.975,0.198c0.6-0.49,0.688-1.375,0.199-1.975
			C152.022,364.02,151.136,363.931,150.537,364.42z"/>
	</g>
	<g>
		<path style="fill:#3D8ED1;" d="M156.954,348.138c0.604,0.739,0.495,1.827-0.244,2.431c-0.739,0.605-1.827,0.495-2.431-0.244
			c-0.604-0.739-0.495-1.826,0.244-2.431C155.262,347.29,156.35,347.399,156.954,348.138z"/>
	</g>
	<g>
		<path style="fill:#E3F2FF;" d="M156.915,350.819c-0.876,0.716-2.171,0.586-2.887-0.29c-0.716-0.876-0.585-2.17,0.29-2.886
			c0.876-0.717,2.171-0.587,2.887,0.289C157.92,348.809,157.79,350.103,156.915,350.819z M154.728,348.145
			c-0.599,0.49-0.688,1.375-0.198,1.975c0.49,0.6,1.375,0.688,1.975,0.199c0.599-0.49,0.688-1.377,0.199-1.976
			C156.213,347.744,155.327,347.655,154.728,348.145z"/>
	</g>
	<g>
		<path style="fill:#3D8ED1;" d="M165.7,344.106c0.604,0.738,0.494,1.826-0.245,2.43c-0.738,0.603-1.827,0.495-2.43-0.244
			c-0.604-0.738-0.495-1.827,0.244-2.431C164.008,343.258,165.096,343.367,165.7,344.106z"/>
	</g>
	<g>
		<path style="fill:#E3F2FF;" d="M165.66,346.787c-0.876,0.716-2.171,0.586-2.886-0.29c-0.716-0.875-0.585-2.17,0.29-2.887
			c0.876-0.716,2.17-0.586,2.886,0.291C166.666,344.776,166.536,346.071,165.66,346.787z M163.474,344.112
			c-0.6,0.49-0.688,1.376-0.199,1.975c0.49,0.6,1.376,0.688,1.975,0.198c0.599-0.489,0.688-1.375,0.198-1.975
			C164.959,343.711,164.073,343.623,163.474,344.112z"/>
	</g>
	<g>
		<path style="fill:#3D8ED1;" d="M141.297,367.61c0.604,0.738,0.494,1.827-0.244,2.431c-0.739,0.604-1.827,0.494-2.431-0.244
			c-0.604-0.739-0.494-1.827,0.244-2.431C139.605,366.763,140.693,366.872,141.297,367.61z"/>
	</g>
	<g>
		<path style="fill:#E3F2FF;" d="M141.258,370.292c-0.876,0.716-2.171,0.585-2.887-0.29c-0.716-0.876-0.585-2.171,0.29-2.887
			c0.876-0.716,2.171-0.585,2.886,0.291C142.263,368.281,142.133,369.576,141.258,370.292z M139.071,367.617
			c-0.599,0.489-0.688,1.376-0.198,1.975c0.489,0.6,1.375,0.689,1.975,0.198c0.599-0.489,0.688-1.375,0.198-1.975
			C140.557,367.216,139.67,367.127,139.071,367.617z"/>
	</g>
	<g>
		<g>
			<path style="fill:#78C2FF;" d="M321.938,163.215h-10.846c-2.374,0-4.306-1.931-4.306-4.305v-10.846
				c0-2.374,1.932-4.305,4.306-4.305h10.846c2.374,0,4.306,1.931,4.306,4.305v10.846
				C326.244,161.284,324.313,163.215,321.938,163.215z M311.093,144.563c-1.931,0-3.501,1.57-3.501,3.501v10.846
				c0,1.93,1.57,3.501,3.501,3.501h10.846c1.931,0,3.501-1.57,3.501-3.501v-10.846c0-1.93-1.57-3.501-3.501-3.501H311.093z"/>
		</g>
	</g>
	<g>
		<g>
			<path style="fill:#78C2FF;" d="M321.938,189.039h-10.846c-2.374,0-4.306-1.931-4.306-4.305v-10.846
				c0-2.374,1.932-4.305,4.306-4.305h10.846c2.374,0,4.306,1.931,4.306,4.305v10.846
				C326.244,187.107,324.313,189.039,321.938,189.039z M311.093,170.387c-1.931,0-3.501,1.57-3.501,3.501v10.846
				c0,1.93,1.57,3.501,3.501,3.501h10.846c1.931,0,3.501-1.57,3.501-3.501v-10.846c0-1.93-1.57-3.501-3.501-3.501H311.093z"/>
		</g>
	</g>
	<g>
		<g>
			<path style="fill:#78C2FF;" d="M321.938,214.46h-10.846c-2.155,0-3.903-1.747-3.903-3.903v-10.846
				c0-2.156,1.748-3.903,3.903-3.903h10.846c2.156,0,3.903,1.748,3.903,3.903v10.846C325.842,212.713,324.095,214.46,321.938,214.46
				z"/>
		</g>
	</g>
	<g>
		<g>
			<g>
				<g>
					<path style="fill:#F3F3F3;" d="M315.925,209.243l-4.715-4.111c-0.387-0.337-0.427-0.924-0.09-1.311
						c0.337-0.387,0.924-0.427,1.311-0.09l3.334,2.907l4.755-5.304c0.343-0.382,0.93-0.414,1.312-0.072
						c0.382,0.342,0.414,0.93,0.072,1.312L315.925,209.243z"/>
				</g>
			</g>
		</g>
	</g>
	<g>
		<g>
			<g>
				<path style="fill:#78C2FF;" d="M145.639,351.399h-14.814c-0.685,0-1.24-0.556-1.24-1.24v-1.103c0-0.685,0.555-1.24,1.24-1.24
					h14.814c0.685,0,1.24,0.556,1.24,1.24v1.103C146.878,350.844,146.324,351.399,145.639,351.399z"/>
			</g>
		</g>
	</g>
	<g>
		<g>
			<g>
				<path style="fill:#78C2FF;" d="M145.639,345.136h-14.814c-0.685,0-1.24-0.555-1.24-1.239v-1.103c0-0.685,0.555-1.24,1.24-1.24
					h14.814c0.685,0,1.24,0.556,1.24,1.24v1.103C146.878,344.581,146.324,345.136,145.639,345.136z"/>
			</g>
		</g>
	</g>
	<g>
		<path style="fill:#163342;" d="M98.099,420.065c0,0,0.48,1.134,1.386,2.316c0.664,0.866,2.729,4.425,3.639,4.674
			c0.91,0.247,3.722,0.743,3.971,2.315c0.248,1.571,0.372,2.688-2.399,2.813c-2.771,0.124-4.591,0.289-5.914-1.654
			c-1.324-1.943-3.433-3.351-3.433-3.351v5.071h-1.075c0,0-0.496-5.278-0.786-5.65c-0.289-0.371-1.034-4.425,1.53-6.534
			C97.582,417.956,98.099,420.065,98.099,420.065z"/>
	</g>
	<g>
		<path style="fill:#EEA886;" d="M103.123,427.055c0,0-2.481,0.619-3.433,0c-0.951-0.621-4.185-6.087-5.256-6.415
			c0,0,1.038-2.105,3.664-0.575C98.099,420.065,102.42,426.144,103.123,427.055z"/>
	</g>
	<g>
		<g>
			<g>
				<g>
					<path style="fill:#EEA886;" d="M127.344,333.497c0,0,1.722,0.33,2.31-0.479c0.5-0.688,1.644-1.217,1.995-1.38
						c0.471-0.219,1.665-1.427,1.946-0.836c0.281,0.591-1.873,2.087-2.262,2.49c-0.389,0.404,2.113,0.583,2.544,0.976
						c0.432,0.393-0.099,4.519-1.802,4.197c-1.703-0.321-3.309-1.788-3.62-1.785c-0.311,0.003-1.248-0.185-1.248-0.185
						L127.344,333.497z"/>
				</g>
			</g>
		</g>
	</g>
	<g>
		<g>
			<g>
				<g>
					<path style="fill:#EEA886;" d="M133.497,334.1c0,0,5.147,1.33,5.415,1.706c0.269,0.375,0.181,0.65-0.306,0.546
						c-0.486-0.104-5.01-1.142-5.01-1.142s5.828,2.598,6.115,2.857c0.169,0.152,0.029,0.693-0.237,0.662
						c-0.266-0.031-6.189-2.276-6.189-2.276s5.437,2.436,5.613,2.725c0.153,0.253-0.1,0.718-0.515,0.565
						c-0.416-0.153-5.589-2.128-5.589-2.128s3.846,2.021,3.85,2.354c0.003,0.203-0.096,0.677-1.072,0.124
						c-0.976-0.553-3.415-1.614-3.415-1.614L133.497,334.1z"/>
				</g>
			</g>
		</g>
	</g>
	<g>
		<path style="fill:#163342;" d="M84.228,423.353c0,0,2.771,4.115,3.888,5.107c0,0,2.482,0.91,2.73,2.646
			c0.248,1.737,0.207,2.896-2.73,2.979c-2.936,0.083-4.862-0.445-5.399-2.223c-0.538-1.778-1.714-2.989-1.714-2.989v3.722H80.34
			c0,0-0.165-3.598-0.207-4.26c-0.041-0.662-0.475-3.205,0.92-4.333C82.449,422.877,84.228,423.353,84.228,423.353z"/>
	</g>
	<g>
		<path style="fill:#1D3B54;" d="M82.366,343.926c0,0-3.499,4.549-4.448,9.946c-0.949,5.396,0.56,23.512,0.519,26.18
			c-0.041,2.667-2.523,9.305-2.026,14.33c0.496,5.025,2.455,30.034,2.455,30.034l5.362-1.063c0,0-0.311-25.497,0-27.605
			c0.31-2.11,0.933-9.799,1.057-10.666c0.124-0.869,7.876-23.675,7.876-27.566C93.161,353.624,90.803,337.577,82.366,343.926z"/>
	</g>
	<g>
		<path style="fill:#1D3B54;" d="M99.943,345.704c0,0,5.748,21.939,6.431,24.979c0.682,3.04,1.671,5.547,1.671,6.838
			c0,2.994-1.113,7.803-1.113,7.803l-7.3,34.914H92.68c0,0,3.874-20.946,3.978-25.042c0.104-4.105,3.264-9.935,2.644-11.671
			c-0.62-1.737-9.988-21.774-9.988-21.774S82.222,339.335,99.943,345.704z"/>
	</g>
	<g>
		<path style="fill:#EEA886;" d="M88.115,428.46c0,0-2.837,1.587-4.665-0.45c-1.543-1.72-2.397-4.007-2.397-4.007l3.174-0.65
			L88.115,428.46z"/>
	</g>
	<g>
		<g>
			<path style="fill:#285173;" d="M97.569,308.419c0,0,2.37,0.225,4.161,2.143c1.791,1.919,3.472,4.979,3.94,6.002
				c0.469,1.023,7.044,10.507,7.385,10.721c0.341,0.213,3.646,1.317,5.836,2.055c3.379,1.137,10.153,3.599,10.153,3.599l-1.345,4.26
				c0,0-12.737-4.169-15.928-4.954c-3.9-0.961-12.88-12.482-12.88-12.482S92.196,311.916,97.569,308.419z"/>
		</g>
	</g>
	<g>
		<g>
			<path style="fill:#FF7E55;" d="M93.433,306.756c0,0,3.07,1.45,4.136,1.663c1.066,0.214,5.202,5.587,5.927,7.548
				c0.725,1.961,0,4.903-1.493,8.357c-1.492,3.453-0.085,4.605-0.768,8.059c-0.682,3.454-0.462,16.374-0.334,18.294
				c0.128,1.918-19.958,4.826-23.924,1.33c0,0,2.685-11.645,5.863-14.968c0.687-0.719,0.614-5.509,0.146-6.703
				c-0.469-1.193-5.756-10.105-5.756-10.105s-0.388-9.038,1.919-10.83c2.004-1.557,7.466-2.111,8.446-2.452
				C88.576,306.606,91.429,306.458,93.433,306.756z"/>
		</g>
	</g>
	<g>
		<g>
			<path style="fill:#EEA886;" d="M94.899,303.214c0,0-0.092,0.846-0.198,1.987c-0.041,0.452-0.085,0.951-0.126,1.463
				c-0.122,1.531-0.22,3.175-0.161,4.016c0,0-3.191,3.197-6.818-3.731c0,0,1.525-2.857,0.377-6.746
				C86.824,296.31,94.899,303.214,94.899,303.214z"/>
		</g>
	</g>
	<g>
		<path style="fill:#183C59;" d="M103.828,325.598c0,0,0.768-5.107-0.049-8.214c0,0,0,2.672-1.464,6.464L103.828,325.598z"/>
	</g>
	<g>
		<path style="fill:#EEA886;" d="M85.145,307.44c0,0,2.194,6.482,8.219,6.005c6.025-0.477,2.856-5.473,2.856-5.473
			s-1.502-0.861-1.924-0.942c-0.422-0.081-6.662-0.16-6.662-0.16L85.145,307.44z"/>
	</g>
	<g>
		<path style="fill:#285173;" d="M96.22,307.972c0,0,3.155,8.729,3.155,17.626c0,8.896,0.254,23.389,1.356,27.966
			c1.102,4.576,4.237,18.73,4.237,18.73l2.458-1.271c0,0-5.91-22.588-6.356-24.217c-0.446-1.629,0.339-18.837,0.763-20.278
			c0.424-1.44,2.226-7.854,1.946-9.633c-0.353-2.243-2.452-5.563-5.842-8.416L96.22,307.972z"/>
	</g>
	<g>
		<path style="fill:#285173;" d="M86.335,307.167c0,0,1.961,6.28,2.955,14.323c0.994,8.044-3.051,45.379-5.763,53.854l-10.51-1.695
			c0,0,2.262-26.39,5.333-31.193c3.071-4.803,4.048-9.051,0.733-19.075c-3.315-10.024,1.453-14.988,1.453-14.988
			S85.414,307.272,86.335,307.167z"/>
	</g>
	<g>
		<polygon style="fill:#616161;" points="97.673,333.801 84.93,355.87 70.765,347.692 82.954,325.302 		"/>
	</g>
	<g>
		<polygon style="fill:#E0CEC7;" points="96.137,334.56 84.82,354.16 72.239,346.897 83.064,327.012 		"/>
	</g>
	<g>
		<polygon style="fill:#616161;" points="91.962,332.798 92.756,331.423 87.67,328.485 86.677,329.747 		"/>
	</g>
	<g>
		<g>
			<g>
				<g>
					<g>
						<g>
							<path style="fill:#EEA886;" d="M91.354,348.458c0,0-0.579,0.002-0.833-0.12c0,0-0.445-0.258-0.772-0.423
								c-0.104-0.052-0.196-0.095-0.258-0.116c-0.26-0.09-0.857-0.209-1.421-0.601c-0.563-0.391-2.558-2.7-2.558-2.7l0.942-1.433
								l0.691-1.467c0,0,4.19,0.271,4.756,0.574c0.055,0.029,0.109,0.06,0.157,0.095c0.455,0.303,0.666,0.72,0.887,0.906
								c0.081,0.069,0.836,0.809,0.81,1.124c-0.036,0.435-0.238,0.725-0.502,0.868c0,0-0.108,0.853-0.528,1.25
								c0,0-0.075,0.79-0.738,1.136C91.986,347.551,91.82,348.344,91.354,348.458z"/>
						</g>
					</g>
				</g>
			</g>
		</g>
	</g>
	<g>
		<g>
			<path style="fill:#285173;" d="M82.72,308.419c0,0-3.87-1.108-6.087,3.155c-2.217,4.265-2.206,6.084-2.502,8.166
				c-0.28,1.966-1.543,7.334-1.671,7.888c-0.128,0.555-2.989,7.165-1.677,9.475c1.318,2.323,14.712,9.158,14.627,9.67
				c-0.085,0.512,2.32-5.168,2.32-5.168s-5.419-3.02-6.307-3.951c-1.442-1.51-4.483-3.139-3.858-5.013
				c0.734-2.201,2.939-9.629,3.451-10.716C81.526,320.838,85.982,309.806,82.72,308.419z"/>
		</g>
	</g>
	<g>
		<g>
			<g>
				<g>
					<g>
						<path style="fill:#EEA987;" d="M95.375,286.423c0,0,6.889,2.166,3.149,14.055c-3.74,11.888-13.148-1.379-12.164-8.621
							C87.345,284.612,95.375,286.423,95.375,286.423z"/>
					</g>
				</g>
			</g>
		</g>
	</g>
	<g>
		<g>
			<g>
				<g>
					<g>
						<path style="fill:#0E2D3D;" d="M99.229,293.36c0,0-3.423,3.359-9.152,3.779c0,0-2.201,2.581-2.371,3.595
							c0,0-5.111-8.712,1.172-13.936C95.161,281.577,101.538,291.209,99.229,293.36z"/>
					</g>
				</g>
			</g>
		</g>
	</g>
	<g>
		<g>
			<g>
				<g>
					<g>
						<path style="fill:#EEA987;" d="M90.146,297.376c-0.044-0.865-0.578-2.835-1.864-2.283c-1.286,0.551,0.079,4.56,0.932,4.314
							C89.214,299.407,90.251,299.423,90.146,297.376z"/>
					</g>
				</g>
			</g>
		</g>
	</g>
	<g>
		<path style="fill:#A77860;" d="M94.701,305.201c-0.041,0.452-0.085,0.951-0.126,1.463c0,0-3.04-0.182-5.073-4.704
			C89.634,302.156,91.862,305.43,94.701,305.201z"/>
	</g>
	<g>
		<path style="fill:#FFD255;" d="M89.831,277.339c-1.356,0-2.647-0.406-3.678-1.165c-1.169-0.86-1.867-2.07-1.965-3.406
			c-0.386-2.618-1.412-5.274-2.229-7.087c-3.416-2.325-5.451-6.162-5.451-10.294c0-6.863,5.584-12.446,12.446-12.446
			c6.863,0,12.446,5.583,12.446,12.446c0,3.736-1.65,7.228-4.534,9.604c-0.735,2.588-1.116,4.935-1.133,6.978
			c0.176,2.734-2.255,5.134-5.431,5.354C90.145,277.334,89.988,277.339,89.831,277.339z M88.954,243.959
			c-6.301,0-11.428,5.126-11.428,11.428c0,3.685,1.748,7.294,5.24,9.608c1.084,2.389,2.052,5.04,2.432,7.644l0.004,0.038
			c0.072,1.042,0.624,1.992,1.554,2.677c0.956,0.703,2.191,1.043,3.477,0.953c2.623-0.181,4.634-2.105,4.483-4.287L94.715,272v-0.02
			c0.019-2.538,0.56-5.16,1.262-7.579c2.975-2.396,4.405-5.642,4.405-9.015C100.382,249.085,95.256,243.959,88.954,243.959z"/>
	</g>
	<g>
		<polygon style="fill:#FFD255;" points="87.21,273.281 84.559,259.88 87.555,261.998 89.157,259.926 90.806,261.631 
			93.272,259.198 92.697,272.866 91.68,272.823 92.146,261.74 90.789,263.078 89.243,261.479 87.765,263.394 86.052,262.183 
			88.209,273.084 		"/>
	</g>
	<g>
		
			<rect x="85.918" y="276.08" transform="matrix(0.9976 -0.0688 0.0688 0.9976 -18.9037 6.8736)" style="fill:#78C2FF;" width="8.828" height="3.558"/>
	</g>
	<g>
		
			<rect x="84.322" y="272.452" transform="matrix(0.9976 -0.069 0.069 0.9976 -18.7737 6.8736)" style="fill:#78C2FF;" width="11.667" height="5.727"/>
	</g>
	<g>
		<polygon style="fill:#5CAAEB;" points="380.715,429.571 365.612,383.19 414.602,383.19 429.56,429.131 428.205,429.571 
			413.566,384.616 367.575,384.616 382.07,429.131 		"/>
	</g>
	<g>
		<polygon style="fill:#5CAAEB;" points="351.779,429.571 350.424,429.131 365.383,383.19 414.372,383.19 399.27,429.571 
			397.914,429.131 412.409,384.616 366.418,384.616 		"/>
	</g>
	<g>
		<polygon style="fill:#5CAAEB;" points="418.617,398.633 361.554,398.633 361.554,397.207 417.846,397.207 		"/>
	</g>
	<g>
		<rect x="356.296" y="412.685" style="fill:#5CAAEB;" width="67.349" height="1.425"/>
	</g>
	<g>
		<g>
			<g>
				<path style="fill:#78C2FF;" d="M329.613,317.9v101.867c0,3.631-2.942,6.573-6.573,6.573H218.788
					c-3.63,0-6.573-2.942-6.573-6.573V317.9c0-3.628,2.942-6.573,6.573-6.573H323.04C326.671,311.327,329.613,314.272,329.613,317.9
					z"/>
			</g>
		</g>
	</g>
	<g>
		<g>
			<g>
				<path style="fill:#78C2FF;" d="M325.842,241.202v3.212c0,2.014-1.633,3.647-3.647,3.647h-81.997
					c-2.014,0-3.647-1.633-3.647-3.647v-3.212c0-2.014,1.633-3.647,3.647-3.647h81.997
					C324.209,237.555,325.842,239.188,325.842,241.202z"/>
			</g>
		</g>
	</g>
	<g>
		<g>
			<g>
				<path style="fill:#78C2FF;" d="M322.194,266.863h-81.997c-2.292,0-4.156-1.864-4.156-4.156v-3.212
					c0-2.292,1.864-4.156,4.156-4.156h81.997c2.292,0,4.156,1.864,4.156,4.156v3.212
					C326.351,264.999,324.486,266.863,322.194,266.863z M240.197,256.356c-1.73,0-3.138,1.408-3.138,3.139v3.212
					c0,1.729,1.408,3.138,3.138,3.138h81.997c1.73,0,3.138-1.408,3.138-3.138v-3.212c0-1.73-1.407-3.139-3.138-3.139H240.197z"/>
			</g>
		</g>
	</g>
	<g>
		<g>
			<g>
				<path style="fill:#78C2FF;" d="M322.194,286.569h-81.997c-2.292,0-4.156-1.864-4.156-4.155v-3.212
					c0-2.292,1.864-4.157,4.156-4.157h81.997c2.292,0,4.156,1.865,4.156,4.157v3.212
					C326.351,284.705,324.486,286.569,322.194,286.569z M240.197,276.064c-1.73,0-3.138,1.408-3.138,3.139v3.212
					c0,1.729,1.408,3.138,3.138,3.138h81.997c1.73,0,3.138-1.408,3.138-3.138v-3.212c0-1.73-1.407-3.139-3.138-3.139H240.197z"/>
			</g>
		</g>
	</g>
	<g>
		<g>
			<g>
				<path style="fill:#E3F2FF;" d="M299.754,361.836v4.271c0,2.146-1.741,3.888-3.889,3.888h-69.114
					c-2.148,0-3.888-1.741-3.888-3.888v-4.271c0-2.147,1.741-3.888,3.888-3.888h69.114
					C298.013,357.948,299.754,359.689,299.754,361.836z"/>
			</g>
		</g>
	</g>
	<g>
		<g>
			<g>
				<path style="fill:#E3F2FF;" d="M299.754,342.637v4.27c0,2.148-1.741,3.889-3.889,3.889h-69.114c-2.148,0-3.888-1.74-3.888-3.889
					v-4.27c0-2.147,1.741-3.888,3.888-3.888h69.114C298.013,338.749,299.754,340.489,299.754,342.637z"/>
			</g>
		</g>
	</g>
	<g>
		<g>
			<g>
				<path style="fill:#E3F2FF;" d="M241.157,411.682v2.007c0,0.399-0.324,0.724-0.723,0.724h-15.559
					c-0.399,0-0.723-0.324-0.723-0.724v-2.007c0-0.399,0.324-0.723,0.723-0.723h15.559
					C240.833,410.959,241.157,411.282,241.157,411.682z"/>
			</g>
		</g>
	</g>
	<g>
		<g>
			<g>
				<path style="fill:#E3F2FF;" d="M261.475,411.682v2.007c0,0.399-0.323,0.724-0.723,0.724h-15.559
					c-0.399,0-0.723-0.324-0.723-0.724v-2.007c0-0.399,0.324-0.723,0.723-0.723h15.559
					C261.151,410.959,261.475,411.282,261.475,411.682z"/>
			</g>
		</g>
	</g>
	<g>
		<g>
			<g>
				<path style="fill:#3D8ED1;" d="M282.058,411.682v2.007c0,0.399-0.324,0.724-0.724,0.724h-15.559
					c-0.399,0-0.723-0.324-0.723-0.724v-2.007c0-0.399,0.323-0.723,0.723-0.723h15.559
					C281.733,410.959,282.058,411.282,282.058,411.682z"/>
			</g>
		</g>
	</g>
	<g style="opacity:0.82;">
		<g>
			<g>
				<path style="fill:#4DA8F2;" d="M234.514,100.861v66.695c0,4.687-3.799,8.485-8.485,8.485h-96.999
					c-4.686,0-8.485-3.799-8.485-8.485v-66.695c0-4.686,3.799-8.485,8.485-8.485h96.999
					C230.715,92.376,234.514,96.175,234.514,100.861z"/>
			</g>
		</g>
	</g>
	<g>
		<g>
			<g>
				<path style="fill:#E3F2FF;" d="M222.424,105.725v2.815c0,1.269-1.029,2.297-2.297,2.297h-48.709
					c-1.269,0-2.297-1.028-2.297-2.297v-2.815c0-1.269,1.029-2.297,2.297-2.297h48.709
					C221.395,103.427,222.424,104.456,222.424,105.725z"/>
			</g>
		</g>
	</g>
	<g>
		<g>
			<g>
				<path style="fill:#E3F2FF;" d="M222.424,120.109v3.789c0,1.269-1.029,2.297-2.297,2.297h-48.709
					c-1.269,0-2.297-1.029-2.297-2.297v-3.789c0-1.269,1.029-2.297,2.297-2.297h48.709
					C221.395,117.812,222.424,118.84,222.424,120.109z"/>
			</g>
		</g>
	</g>
	<g>
		<g>
			<g>
				<g>
					<path style="fill:#E3F2FF;" d="M140.753,129.486c1.347,0.457,2.789,0.711,4.289,0.731c4.545,0.058,8.61-2.065,11.196-5.399
						c1.793-2.312,2.876-5.203,2.914-8.353c0.005-0.313-0.002-0.625-0.018-0.933c-0.074-1.399-0.357-2.743-0.815-4.004
						c-1.921-5.289-6.958-9.096-12.917-9.173c-3.212-0.042-6.182,1.006-8.562,2.801c-3.324,2.507-5.494,6.468-5.55,10.952
						C131.211,122.301,135.186,127.603,140.753,129.486z M134.776,116.152c0.042-3.337,1.647-6.289,4.109-8.169
						c1.794-1.371,4.04-2.172,6.471-2.142c4.468,0.057,8.245,2.912,9.686,6.878l0.002,0.006c0.342,0.943,0.552,1.949,0.609,2.997
						c0.012,0.231,0.016,0.464,0.014,0.7c-0.03,2.362-0.843,4.529-2.186,6.261c-1.939,2.501-4.986,4.094-8.393,4.05
						c-1.126-0.015-2.207-0.207-3.217-0.549C137.698,124.772,134.717,120.797,134.776,116.152z"/>
				</g>
			</g>
		</g>
		<g>
			<g>
				<g>
					<path style="fill:#E3F2FF;" d="M153.481,122.682l2.757,2.135c-2.586,3.334-6.651,5.459-11.195,5.4
						c-1.5-0.02-2.941-0.275-4.289-0.732l1.118-3.303c1.011,0.342,2.091,0.534,3.216,0.548
						C148.495,126.775,151.542,125.183,153.481,122.682z"/>
				</g>
			</g>
		</g>
		<g>
			<g>
				<g>
					<path style="fill:#E3F2FF;" d="M155.652,115.721l3.482-0.189c0.017,0.309,0.023,0.621,0.019,0.934
						c-0.04,3.15-1.123,6.042-2.915,8.352l-2.757-2.135c1.344-1.732,2.155-3.9,2.185-6.261
						C155.669,116.186,155.665,115.952,155.652,115.721z"/>
				</g>
			</g>
		</g>
		<g>
			<g>
				<g>
					<path style="fill:#E3F2FF;" d="M155.653,115.721c-0.057-1.047-0.267-2.053-0.609-2.997l-0.002-0.006l3.278-1.191
						c0.458,1.261,0.741,2.605,0.815,4.004L155.653,115.721z"/>
				</g>
			</g>
		</g>
		<g>
			<g>
				<g>
					<path style="fill:#E3F2FF;" d="M136.841,105.156c2.38-1.795,5.35-2.843,8.562-2.801c5.959,0.077,10.997,3.884,12.917,9.173
						l-3.275,1.197l-0.002-0.006c-1.441-3.966-5.218-6.821-9.686-6.878c-2.431-0.03-4.677,0.771-6.471,2.142L136.841,105.156z"/>
				</g>
			</g>
		</g>
	</g>
	<g style="opacity:0.66;">
		<polygon style="fill:#E3F2FF;" points="131.289,163.144 150.022,148.58 166.286,157.405 188.985,140.208 205.251,149.395 
			222.424,137.718 222.424,163.144 		"/>
	</g>
</g>
</svg>
